<svg xmlns="http://www.w3.org/2000/svg" viewBox="0 0 64 64"><path fill="#222" d="M24.206 55.5a1.5 1.5 0 0 1-.91-2.694l15.784-12a1.5 1.5 0 0 1 1.817 0l13.375 10.17V17.12a5.507 5.507 0 0 0-5.5-5.5H24.205a1.5 1.5 0 0 1 0-3h24.567a8.51 8.51 0 0 1 8.5 8.5V54a1.5 1.5 0 0 1-2.409 1.194l-14.875-11.31-14.875 11.31a1.493 1.493 0 0 1-.907.306Z"/><path fill="#222" d="M23.867 55.5a1.5 1.5 0 0 1-1.5-1.5V18.88a3.259 3.259 0 0 0-6.517 0v18a1.5 1.5 0 0 1-3 0v-18a6.259 6.259 0 0 1 12.517 0V54a1.5 1.5 0 0 1-1.5 1.5Z"/></svg>